<svg width="32" height="32" viewBox="0 0 32 32" fill="none" xmlns="http://www.w3.org/2000/svg">
<path d="M12.1324 25.2308V27.5385C12.1324 27.7932 12.3382 28 12.5919 28H14.4301C14.552 28 14.6689 27.9514 14.7551 27.8648C14.8413 27.7783 14.8897 27.6609 14.8897 27.5385V25.2308H15.8088V27.5385C15.8088 27.7932 16.0147 28 16.2684 28H18.1066C18.2285 28 18.3454 27.9514 18.4316 27.8648C18.5178 27.7783 18.5662 27.6609 18.5662 27.5385V25.2308H18.7206C22.3824 25.2308 25 23.3237 25 20.0246C25 17.2517 23.1489 15.736 20.9816 15.52V15.3575C22.7647 14.9108 24.0754 13.5594 24.0754 11.3145C24.0754 8.48615 21.9614 6.76923 18.7353 6.76923H18.5662V4.46154C18.5662 4.33913 18.5178 4.22174 18.4316 4.13518C18.3454 4.04863 18.2285 4 18.1066 4H16.2684C16.1465 4 16.0296 4.04863 15.9434 4.13518C15.8572 4.22174 15.8088 4.33913 15.8088 4.46154V6.76923H14.7555V4.46154C14.7555 4.33913 14.7071 4.22174 14.6209 4.13518C14.5347 4.04863 14.4178 4 14.296 4H12.5919C12.47 4 12.3531 4.04863 12.267 4.13518C12.1808 4.22174 12.1324 4.33913 12.1324 4.46154V6.76923L8.45956 6.78954C8.33768 6.78954 8.22079 6.83816 8.1346 6.92472C8.04842 7.01128 8 7.12867 8 7.25108V9.07692C8 9.32985 8.20221 9.53846 8.45588 9.53846L9.84375 9.52923C10.2078 9.53167 10.5561 9.67862 10.8127 9.93802C11.0693 10.1974 11.2132 10.5482 11.2132 10.9138V21.0769C11.2132 21.4441 11.068 21.7963 10.8094 22.056C10.5509 22.3157 10.2002 22.4615 9.83456 22.4615L8.45956 22.4818C8.33768 22.4818 8.22079 22.5305 8.1346 22.617C8.04842 22.7036 8 22.821 8 22.9434V24.7895C8 25.0443 8.20588 25.2511 8.45956 25.2511L12.1324 25.2308ZM14.7555 9.51446H17.9154C19.5809 9.51446 20.5588 10.4338 20.5588 11.9366C20.5588 13.5446 19.5018 14.4511 17.1085 14.4511H14.7555V9.51446ZM14.7555 16.9932H18.1379C20.2279 16.9932 21.3658 18.064 21.3658 19.8068C21.3658 21.5662 20.2151 22.4837 17.3989 22.4837H14.7555V16.9951V16.9932Z" fill="#ABB2BF"/>
</svg>
