<svg width="104" height="56" viewBox="0 0 104 56" fill="none" xmlns="http://www.w3.org/2000/svg">
<circle cx="2" cy="2" r="2" fill="#ABB2BF"/>
<circle cx="27" cy="2" r="2" fill="#ABB2BF"/>
<circle cx="52" cy="2" r="2" fill="#ABB2BF"/>
<circle cx="77" cy="2" r="2" fill="#ABB2BF"/>
<circle cx="102" cy="2" r="2" fill="#ABB2BF"/>
<circle cx="2" cy="19.3333" r="2" fill="#ABB2BF"/>
<circle cx="27" cy="19.3333" r="2" fill="#ABB2BF"/>
<circle cx="52" cy="19.3333" r="2" fill="#ABB2BF"/>
<circle cx="77" cy="19.3333" r="2" fill="#ABB2BF"/>
<circle cx="102" cy="19.3333" r="2" fill="#ABB2BF"/>
<circle cx="2" cy="36.6667" r="2" fill="#ABB2BF"/>
<circle cx="27" cy="36.6667" r="2" fill="#ABB2BF"/>
<circle cx="52" cy="36.6667" r="2" fill="#ABB2BF"/>
<circle cx="77" cy="36.6667" r="2" fill="#ABB2BF"/>
<circle cx="102" cy="36.6667" r="2" fill="#ABB2BF"/>
<circle cx="2" cy="54" r="2" fill="#ABB2BF"/>
<circle cx="27" cy="54" r="2" fill="#ABB2BF"/>
<circle cx="52" cy="54" r="2" fill="#ABB2BF"/>
<circle cx="77" cy="54" r="2" fill="#ABB2BF"/>
<circle cx="102" cy="54" r="2" fill="#ABB2BF"/>
</svg>
